<svg width="32" height="32" viewBox="0 0 32 32" fill="none" xmlns="http://www.w3.org/2000/svg">
  <rect width="32" height="32" rx="6" fill="#0E0E12"/>
  <path d="M16 4L20 8H24C25.1046 8 26 8.89543 26 10V22C26 23.1046 25.1046 24 24 24H8C6.89543 24 6 23.1046 6 22V10C6 8.89543 6.89543 8 8 8H12L16 4Z" fill="#0070F3"/>
  <path d="M16 12L20 16H24C25.1046 16 26 16.8954 26 18V22C26 23.1046 25.1046 24 24 24H8C6.89543 24 6 23.1046 6 22V18C6 16.8954 6.89543 16 8 16H12L16 12Z" fill="#0070F3" opacity="0.7"/>
  <circle cx="16" cy="20" r="2" fill="white"/>
</svg>
